<?xml version="1.0" encoding="UTF-8"?>
<svg xmlns="http://www.w3.org/2000/svg" xmlns:xlink="http://www.w3.org/1999/xlink" viewBox="0 0 64 64" width="64px" height="64px">
<g id="surface6487375">
<path style=" stroke:none;fill-rule:nonzero;fill:rgb(100%,100%,100%);fill-opacity:1;" d="M 48 8 L 16 8 C 11.582031 8 8 11.582031 8 16 L 8 48 C 8 52.417969 11.582031 56 16 56 L 48 56 C 52.417969 56 56 52.417969 56 48 L 56 16 C 56 11.582031 52.417969 8 48 8 Z M 24 47 L 19 47 L 19 27 L 24 27 Z M 24.027344 23.007812 C 23.382812 23.667969 22.539062 24 21.5 24 C 20.472656 24 19.636719 23.660156 18.980469 22.976562 C 18.328125 22.296875 18 21.457031 18 20.46875 C 18 19.449219 18.328125 18.617188 18.980469 17.96875 C 19.636719 17.324219 20.472656 17 21.5 17 C 22.539062 17 23.382812 17.324219 24.027344 17.96875 C 24.675781 18.613281 25 19.449219 25 20.46875 C 25 21.503906 24.675781 22.347656 24.027344 23.007812 Z M 47 47 L 42 47 L 42 35.886719 C 42 32.789062 40.214844 31 38 31 C 36.933594 31 35.726562 31.648438 35.035156 32.46875 C 34.34375 33.289062 34 34.332031 34 35.59375 L 34 47 L 29 47 L 29 27 L 34 27 L 34 30.164062 L 34.078125 30.164062 C 35.550781 27.730469 37.691406 26.519531 40.503906 26.511719 C 44.5 26.5 47 29.5 47 34.753906 Z M 47 47 "/>
</g>
</svg>
